<svg id="Layer_1" enable-background="new 0 0 512 512" height="512" viewBox="0 0 512 512" width="512" xmlns="http://www.w3.org/2000/svg"><path d="m91 422.389c10.49 0 10.768-16.889 0-16.889-10.772 0-10.487 16.889 0 16.889z"/><path d="m358.39 291h-204.78c-38.934 0-70.61 31.676-70.61 70.61v24.39c0 4.418 3.582 8 8 8s8-3.582 8-8v-24.39c0-30.112 24.498-54.61 54.61-54.61h28.184c-13.621 9.615-16.255 10.392-16.751 15.174-.238 2.297.527 4.584 2.1 6.275l37.592 40.41-2.707 32.477c-.363 4.36 2.844 8.203 7.198 8.627l64.774 6.297v79.74h-109v-106c0-4.418-3.582-8-8-8s-8 3.582-8 8v106h-48c-1.103 0-2-.897-2-2v-50.833c0-4.418-3.582-8-8-8s-8 3.582-8 8v50.833c0 9.925 8.075 18 18 18h310c9.925 0 18-8.075 18-18v-132.39c0-38.934-31.676-70.61-70.61-70.61zm-68.527 16-24.181 35.465c-2.489 3.65-1.548 8.628 2.103 11.116 3.648 2.488 8.628 1.549 11.116-2.103l28.128-41.254 19.877 14.031-33.764 36.295c-1.534 1.649-2.302 3.869-2.115 6.113l2.359 28.308-10.42 1.245-60.829-89.216zm-71.235 87.801 2.345-28.137c.187-2.244-.581-4.464-2.115-6.113l-33.764-36.295 19.877-14.031 60.79 89.159zm194.372 99.199c0 1.103-.897 2-2 2h-48v-106c0-4.418-3.582-8-8-8s-8 3.582-8 8v106h-57v-84.51l12.948-1.546c4.277-.511 7.382-4.315 7.024-8.607l-2.707-32.477 37.592-40.41c3.299-3.549 2.711-9.193-1.244-11.985l-13.407-9.465h28.184c30.112 0 54.61 24.498 54.61 54.61z"/><path d="m243 455h6c4.418 0 8-3.582 8-8s-3.582-8-8-8h-6c-4.418 0-8 3.582-8 8s3.582 8 8 8z"/><path d="m243 495h6c4.418 0 8-3.582 8-8s-3.582-8-8-8h-6c-4.418 0-8 3.582-8 8s3.582 8 8 8z"/><path d="m124 142h31v39.153c0 54.85 44.358 100.847 101.152 100.847 55.608 0 100.848-45.24 100.848-100.848v-39.152h31c7.156 0 10.717-8.729 5.583-13.729l-36.583-35.646v-60.625c0-17.645-14.355-32-32-32h-35.059c-8.548 0-16.584 3.328-22.628 9.372-6.238 6.238-16.389 6.238-22.627 0-6.043-6.044-14.08-9.372-22.627-9.372h-35.059c-17.645 0-32 14.355-32 32v60.625l-36.583 35.646c-5.125 4.992-1.585 13.729 5.583 13.729zm217 39.152c0 46.225-37.373 84.848-85.153 84.848-46.784 0-84.847-38.062-84.847-84.847v-39.153h8v28.25c0 13.233 10.767 24 24 24h35c2.586 0 5.013-1.25 6.515-3.356l11.485-16.112 11.485 16.111c1.502 2.106 3.929 3.356 6.515 3.356h34c13.233 0 24-10.767 24-24v-28.249h9zm-25-39.152v28.25c0 4.411-3.589 8-8 8h-29.878l-15.607-21.894c-3.188-4.472-9.841-4.471-13.029 0l-15.607 21.894h-30.879c-4.411 0-8-3.589-8-8v-28.25zm-149.747-38h111.747c4.418 0 8-3.582 8-8s-3.582-8-8-8h-107v-56c0-8.822 7.178-16 16-16h35.059c4.274 0 8.292 1.664 11.313 4.687 12.509 12.507 32.747 12.507 45.256 0 3.021-3.022 7.039-4.687 11.313-4.687h35.059c8.822 0 16 7.178 16 16v56h-29c-4.418 0-8 3.582-8 8s3.582 8 8 8h33.747l22.579 22h-224.652z"/></svg>