<?xml version="1.0" standalone="no"?>
<!DOCTYPE svg PUBLIC "-//W3C//DTD SVG 20010904//EN"
 "http://www.w3.org/TR/2001/REC-SVG-20010904/DTD/svg10.dtd">
<svg version="1.0" xmlns="http://www.w3.org/2000/svg"
 width="1280.000000pt" height="519.000000pt" viewBox="0 0 1280.000000 519.000000"
 preserveAspectRatio="xMidYMid meet">
<g transform="translate(0.000000,519.000000) scale(0.100000,-0.100000)"
fill="#000000" stroke="none">
<path d="M6242 5054 c-59 -15 -102 -36 -147 -68 -16 -12 -59 -34 -95 -49 -36
-15 -89 -45 -117 -67 -29 -22 -72 -49 -95 -61 -24 -12 -79 -45 -123 -74 -44
-29 -96 -60 -115 -70 -19 -10 -55 -32 -80 -49 -25 -18 -72 -47 -105 -65 -33
-18 -78 -48 -100 -66 -22 -17 -61 -41 -87 -53 -25 -11 -73 -38 -105 -59 -32
-22 -80 -52 -106 -67 -26 -15 -62 -40 -80 -55 -18 -14 -63 -43 -102 -63 -38
-20 -93 -51 -121 -69 -124 -82 -212 -137 -283 -178 -42 -23 -91 -55 -110 -69
-19 -14 -55 -36 -80 -49 -25 -12 -70 -41 -99 -63 -28 -22 -80 -54 -114 -71
-33 -17 -84 -46 -112 -63 -28 -18 -97 -62 -153 -97 -56 -35 -136 -86 -179
-114 -43 -27 -113 -68 -155 -90 -43 -23 -95 -55 -116 -71 -21 -17 -69 -48
-108 -69 -38 -22 -95 -55 -125 -76 -30 -20 -70 -44 -88 -53 -76 -39 -247 -162
-310 -224 -44 -43 -79 -89 -98 -127 -28 -58 -29 -65 -29 -205 0 -139 1 -148
28 -202 43 -88 107 -152 195 -195 l76 -38 623 -3 c343 -1 624 -4 625 -5 1 -1
5 -351 8 -777 l5 -775 32 -67 c55 -117 162 -201 290 -228 32 -7 749 -9 2163
-8 l2115 3 65 31 c162 77 238 219 225 417 -8 130 -17 1335 -10 1375 l6 34 697
-2 c631 -3 701 -1 742 14 178 66 270 216 270 439 0 200 -82 329 -271 426 -46
24 -97 53 -114 65 -30 21 -151 88 -300 166 -44 24 -113 62 -153 86 -40 25
-105 60 -144 79 -39 19 -79 41 -87 49 -9 8 -52 32 -96 53 -44 22 -105 55 -135
75 -31 20 -78 47 -105 60 -28 14 -68 37 -90 52 -22 16 -89 53 -150 82 -60 30
-134 69 -162 87 -29 18 -99 58 -155 91 -57 32 -128 73 -158 91 -30 18 -102 58
-160 88 -109 56 -197 106 -335 187 -44 27 -107 61 -140 77 -33 16 -85 44 -115
62 -122 73 -249 144 -322 180 -43 22 -90 48 -105 59 -16 11 -60 36 -99 55 -40
19 -87 46 -105 60 -19 14 -71 43 -116 65 -45 22 -95 49 -110 60 -15 11 -62 36
-103 57 -41 20 -90 48 -108 62 -17 13 -48 31 -69 39 -99 42 -308 56 -411 28z
m218 -104 c78 -13 129 -32 184 -69 22 -15 67 -39 98 -54 32 -14 77 -39 100
-54 24 -16 81 -49 128 -72 47 -24 94 -51 105 -61 11 -11 47 -31 80 -45 33 -15
80 -40 104 -57 24 -16 85 -50 135 -75 50 -25 105 -55 121 -67 31 -22 165 -95
323 -177 51 -27 105 -57 120 -67 15 -11 63 -39 107 -62 44 -24 94 -52 110 -64
17 -12 71 -41 120 -66 50 -24 126 -65 170 -91 44 -25 125 -73 180 -104 55 -32
122 -72 149 -89 27 -17 94 -52 147 -78 54 -26 126 -66 160 -88 34 -22 67 -40
73 -40 6 0 43 -21 81 -46 39 -26 99 -60 133 -75 35 -16 78 -39 95 -51 18 -13
84 -50 147 -84 63 -34 169 -92 235 -129 66 -38 164 -92 218 -121 55 -29 106
-59 115 -67 10 -8 59 -36 109 -62 162 -83 238 -189 237 -335 0 -134 -103 -274
-234 -319 -26 -9 -210 -12 -736 -11 -385 0 -708 -2 -718 -6 -16 -6 -17 -60
-16 -803 l2 -797 -22 -47 c-47 -100 -143 -180 -244 -201 -36 -8 -635 -10
-2096 -6 l-2045 5 -67 33 c-74 36 -132 95 -170 170 l-23 47 -5 786 c-4 638 -8
789 -18 802 -13 15 -78 17 -650 19 l-637 3 -56 28 c-67 32 -142 109 -172 175
-16 35 -22 66 -22 122 0 93 22 137 109 228 58 61 249 198 339 243 23 12 62 36
87 54 25 18 75 48 112 68 37 19 84 49 105 66 21 18 70 47 108 66 39 19 95 53
125 74 30 22 78 52 105 66 28 14 68 39 90 56 22 16 62 41 88 55 27 14 69 40
95 58 26 19 75 48 109 65 35 17 87 49 115 71 29 22 73 49 97 61 24 11 60 33
80 49 20 16 63 44 97 62 55 30 101 59 278 174 32 22 92 57 132 79 40 22 103
61 141 86 119 80 176 116 243 149 36 18 79 45 97 60 17 16 62 45 100 66 37 21
82 48 99 61 16 12 55 36 86 52 30 16 85 50 121 76 36 25 87 55 114 67 26 11
64 34 83 51 19 17 73 48 120 70 47 22 100 51 117 65 33 24 131 61 168 61 11 1
49 -4 85 -9z"/>
<path d="M6300 4659 c-25 -17 -77 -46 -117 -64 -39 -18 -76 -41 -81 -52 -6
-10 -25 -25 -44 -34 -18 -10 -63 -32 -100 -50 -37 -18 -70 -40 -73 -49 -3 -10
-40 -32 -83 -51 -42 -19 -95 -50 -117 -70 -22 -19 -62 -44 -89 -55 -27 -10
-66 -36 -88 -56 -21 -21 -80 -57 -131 -82 -51 -24 -104 -58 -119 -74 -15 -16
-42 -32 -60 -36 -18 -3 -52 -23 -75 -45 -24 -21 -82 -58 -130 -81 -49 -24 -98
-56 -111 -71 -13 -16 -41 -33 -64 -40 -41 -10 -96 -44 -110 -65 -12 -18 -100
-71 -129 -78 -14 -3 -44 -22 -65 -42 -42 -38 -104 -74 -128 -74 -9 0 -37 -20
-64 -44 -28 -24 -84 -60 -125 -79 -42 -20 -93 -52 -113 -71 -21 -19 -51 -38
-68 -42 -36 -8 -92 -43 -124 -78 -13 -13 -40 -30 -60 -37 -38 -12 -114 -58
-120 -72 -6 -12 -89 -67 -102 -67 -26 0 -87 -36 -122 -71 -21 -21 -53 -42 -73
-48 -19 -5 -48 -19 -64 -30 -16 -12 -34 -21 -40 -21 -6 0 -17 -11 -26 -23 -16
-25 -19 -27 -126 -76 -37 -17 -74 -42 -83 -56 -9 -13 -29 -28 -44 -31 -34 -9
-61 -26 -112 -73 -33 -30 -40 -43 -40 -73 0 -27 6 -40 19 -48 13 -7 274 -10
775 -10 416 0 757 -1 758 -2 2 -2 5 -417 8 -923 l5 -920 53 -7 c30 -5 959 -7
2065 -6 l2012 3 -3 50 c-7 91 -13 1760 -7 1783 l6 23 846 -2 c734 -1 847 1
854 13 5 9 6 38 2 65 l-6 51 -101 47 c-55 26 -104 53 -108 60 -4 7 -47 32 -95
55 -49 24 -101 54 -116 66 -16 13 -33 24 -39 24 -6 0 -19 6 -27 13 -9 8 -41
24 -71 36 -30 13 -65 32 -77 43 -22 21 -55 42 -83 54 -8 3 -28 12 -45 19 -16
8 -45 19 -62 25 -18 7 -45 25 -60 40 -16 15 -46 35 -68 44 -95 41 -146 69
-176 97 -17 16 -43 32 -58 36 -38 9 -119 52 -128 67 -4 7 -44 30 -88 51 -164
78 -187 90 -196 108 -5 9 -18 17 -28 17 -10 0 -24 6 -30 14 -6 7 -24 16 -39
19 -15 3 -43 21 -63 39 -20 18 -69 46 -108 62 -40 16 -77 36 -84 45 -7 9 -28
24 -47 34 -19 11 -46 25 -60 32 -14 7 -47 21 -74 30 -26 10 -62 30 -80 45 -35
31 -131 84 -167 93 -13 3 -42 22 -63 42 -21 19 -51 38 -65 42 -14 3 -42 14
-61 25 -19 10 -40 18 -46 18 -6 0 -18 7 -25 16 -19 23 -74 56 -139 83 -30 13
-66 33 -80 46 -34 31 -104 68 -168 89 -28 10 -65 30 -80 45 -15 15 -45 36 -67
46 -102 45 -147 70 -156 87 -5 10 -18 18 -28 18 -10 0 -24 7 -31 15 -7 8 -19
15 -28 15 -25 0 -98 38 -125 66 -14 14 -63 41 -109 59 -46 19 -91 44 -100 56
-20 23 -72 38 -133 39 -28 0 -53 -9 -85 -31z m229 -170 c64 -34 127 -69 141
-79 14 -9 66 -38 115 -65 50 -26 115 -62 145 -80 30 -18 96 -55 145 -82 332
-184 397 -221 595 -333 36 -20 148 -83 250 -139 258 -144 264 -148 370 -206
52 -29 149 -83 215 -120 66 -38 179 -101 250 -140 72 -40 148 -82 170 -95 51
-29 599 -335 725 -405 52 -29 124 -69 158 -89 35 -20 66 -36 68 -36 12 0 84
-52 84 -60 0 -7 -258 -10 -734 -10 -404 0 -741 -3 -750 -6 -14 -6 -16 -96 -16
-918 0 -696 -3 -915 -12 -924 -9 -9 -454 -12 -1942 -12 -1062 0 -1936 4 -1943
8 -9 6 -13 222 -15 920 -3 798 -5 914 -18 922 -9 6 -275 10 -670 10 -360 0
-661 4 -669 9 -15 10 -19 7 169 123 254 158 317 196 340 208 14 7 34 20 45 30
11 9 45 31 75 47 30 17 93 54 140 83 47 29 103 65 125 78 22 14 59 38 82 54
23 15 44 28 48 28 4 0 48 26 98 58 93 60 223 141 397 247 52 32 122 75 155 95
33 21 233 145 445 275 526 325 716 443 904 561 89 56 170 102 180 103 11 1 71
-27 135 -60z"/>
<path d="M7477 3060 c-59 -15 -91 -36 -136 -86 -23 -26 -44 -44 -48 -40 -4 4
-10 31 -13 59 l-5 52 -248 3 c-167 1 -254 -1 -268 -9 -15 -8 -24 -8 -32 0 -12
12 -176 15 -193 3 -6 -4 -34 -42 -62 -84 -28 -42 -56 -79 -61 -83 -6 -3 -36
34 -69 82 l-58 88 -88 3 c-98 3 -116 -4 -116 -50 0 -36 5 -45 102 -191 43 -66
78 -126 78 -135 -1 -24 -124 -197 -140 -197 -9 0 -37 63 -78 175 -35 96 -82
225 -105 285 l-43 110 -100 3 c-73 2 -104 -1 -112 -10 -5 -7 -40 -96 -77 -198
-37 -102 -89 -246 -116 -322 -49 -137 -59 -194 -37 -216 7 -7 44 -12 95 -12
94 0 95 1 133 103 25 67 41 77 130 77 59 0 60 -1 79 -37 10 -21 25 -57 32 -81
7 -24 21 -48 31 -53 10 -5 87 -8 175 -7 l158 3 59 83 c68 95 60 96 143 -15
l53 -72 362 0 c314 -1 364 1 379 14 15 15 25 14 105 -9 71 -21 110 -26 199
-26 126 0 162 8 227 49 68 44 88 88 88 200 0 167 -39 208 -234 250 -113 25
-138 36 -134 59 9 48 109 51 205 7 60 -27 112 -32 131 -13 16 16 16 169 0 190
-22 28 -117 50 -238 54 -63 2 -132 -1 -153 -6z m-728 -407 c1 -138 -3 -254 -7
-257 -11 -6 -170 226 -178 260 -5 19 8 45 56 115 35 50 74 109 89 131 21 33
26 36 32 21 4 -10 8 -131 8 -270z m547 193 c14 -58 12 -59 -141 -57 -77 1
-155 4 -173 8 -29 5 -33 9 -30 32 l3 26 155 5 c85 3 161 7 167 8 7 1 15 -9 19
-22z m25 -155 c30 -55 108 -94 233 -120 55 -11 106 -27 114 -35 21 -21 8 -45
-35 -63 -47 -19 -112 -7 -192 37 -84 46 -151 39 -151 -17 0 -23 0 -23 -147
-23 -199 0 -195 -1 -191 69 l3 56 151 5 c176 6 184 9 184 81 0 27 2 49 4 49 3
0 15 -18 27 -39z"/>
<path d="M4882 3038 c-16 -16 -16 -142 1 -156 6 -5 58 -13 113 -17 l102 -7 6
-30 c3 -17 6 -142 6 -279 l0 -249 23 -5 c12 -3 54 -5 92 -3 l70 3 5 270 c3
149 9 276 13 283 6 8 38 12 102 12 122 0 129 6 119 104 -4 39 -9 74 -11 79 -8
13 -627 9 -641 -5z"/>
</g>
</svg>
