<?xml version="1.0" standalone="no"?>
<!DOCTYPE svg PUBLIC "-//W3C//DTD SVG 20010904//EN" "http://www.w3.org/TR/2001/REC-SVG-20010904/DTD/svg10.dtd">
<!-- Created using Krita: https://krita.org -->
<svg xmlns="http://www.w3.org/2000/svg" 
    xmlns:xlink="http://www.w3.org/1999/xlink"
    xmlns:krita="http://krita.org/namespaces/svg/krita"
    xmlns:sodipodi="http://sodipodi.sourceforge.net/DTD/sodipodi-0.dtd"
    width="1152pt"
    height="864pt"
    viewBox="0 0 1152 864">
<defs/>
<rect id="backgroundrect" transform="matrix(0.72 0 0 0.72 0 0)" fill="none" stroke="#000000" stroke-opacity="0" stroke-width="0" stroke-linecap="square" stroke-linejoin="bevel" width="36" height="45"/><g id="group0" transform="matrix(8.7864406779661 0 0 8.82983050847457 432.48813559322 82.9830508474576)" fill="none">
  <path id="svg_1" fill="#eb1a1a" stroke="#000000" stroke-width="1" stroke-linecap="butt" stroke-linejoin="miter" stroke-miterlimit="2" d="M18 0C8.059 0 0 2.686 0 6L0 23C0 28.083 5.417 42.083 18 45C30.583 42.083 36 28.083 36 23L36 6C36 2.686 27.941 0 18 0ZM18 2C28.499 2 34 4.972 34 6L34 23C34 27.1378 29.6694 38.5227 20 42.2949L20 36L16 36L16 42.2949C6.33059 38.5227 2 27.1378 2 23L2 6C2 4.972 7.501 2 18 2ZM10 9C8.004 9 5.855 9.877 4 13C5.953 11.64 7.613 11 9 11C11.688 11 13.0265 14.1495 13.4395 14.5605C14.0245 15.1465 14.9745 15.1465 15.5605 14.5605C16.1465 13.9755 16.1465 13.0255 15.5605 12.4395C15.1945 12.0745 13.438 9 10 9ZM26 9C22.562 9 20.8055 12.0745 20.4395 12.4395C19.8535 13.0255 19.8535 13.9755 20.4395 14.5605C21.0255 15.1465 21.9755 15.1465 22.5605 14.5605C22.9735 14.1495 24.313 11 27 11C28.387 11 30.047 11.64 32 13C30.145 9.877 27.996 9 26 9ZM9 15C7.36 15 5.918 15.594 5 16.5C5.918 17.406 7.36 18 9 18C10.64 18 12.082 17.406 13 16.5C12.082 15.594 10.64 15 9 15ZM27 15C25.36 15 23.918 15.594 23 16.5C23.918 17.406 25.36 18 27 18C28.64 18 30.082 17.406 31 16.5C30.082 15.594 28.64 15 27 15ZM4 24L9 32L16 32L18 30L20 32L27 32L32 24L26 29L22 29L19 26L17 26L14 29L10 29Z"/>
 </g><rect id="backgroundrect1" transform="matrix(0.72 0 0 0.72 0 0)" fill="none" stroke="#000000" stroke-opacity="0" stroke-width="0" stroke-linecap="square" stroke-linejoin="bevel" width="905.104956054688" height="148.43515625"/><g id="group1" transform="matrix(0.968431119028845 0 0 2.45770165752448 143.46669762093 377.178878986161)" fill="none">
  <g id="svg_11" fill="none">
   <g id="svg_2" fill="none">
    <path id="svg_3" transform="translate(141.652662658691, 53.1780362248421)" fill="#ffffff" stroke="#000000" stroke-width="6" stroke-linecap="butt" stroke-linejoin="miter" stroke-miterlimit="2" d="M66.5 44.8L0 44.8L0 0L66.5 0ZM16.7 9.09L16.7 35.71L49.79 35.71L49.79 9.09ZM82.43 9.09L72.9 9.09L72.9 0L99.14 0L99.14 35.71L125.89 35.71L125.89 30.27L142.59 27.97L142.59 44.8L82.43 44.8ZM154.69 9.09L145.15 9.09L145.15 0L171.39 0L171.39 44.8L154.69 44.8ZM187.33 9.09L177.79 9.09L177.79 0L253.82 0L253.82 15.87L237.12 13.57L237.12 9.09L204.03 9.09L204.03 35.71L237.12 35.71L237.12 29.63L223.62 29.63L223.62 20.54L253.82 20.54L253.82 44.8L187.33 44.8ZM278.21 44.8L260.86 44.8L276.48 9.09L268.54 9.09L268.54 0L313.02 0L332.48 44.8L315.2 44.8L310.34 33.6L283.07 33.6ZM293.82 9.09L287.04 24.51L306.37 24.51L299.58 9.09ZM342.02 33.22L332.48 34.82L332.48 24.9L342.02 23.3L342.02 0L408.51 0L408.51 22.02L389.18 25.28L411.14 44.8L388.03 44.8L369.79 28.54L358.72 30.4L358.72 44.8L342.02 44.8ZM358.72 9.09L358.72 20.35L391.81 14.78L391.81 9.09ZM423.23 9.09L413.7 9.09L413.7 0L489.73 0L489.73 16.51L473.02 14.21L473.02 9.09L439.94 9.09L439.94 35.71L473.02 35.71L473.02 30.59L489.73 28.29L489.73 44.8L423.23 44.8ZM512.83 44.8L495.49 44.8L511.1 9.09L503.17 9.09L503.17 0L547.65 0L567.1 44.8L549.82 44.8L544.96 33.6L517.7 33.6ZM528.45 9.09L521.66 24.51L540.99 24.51L534.21 9.09ZM638.66 44.8L572.86 44.8L572.86 30.08L589.57 32.51L589.57 35.71L621.95 35.71L621.95 30.08L572.86 22.34L572.86 0L638.66 0L638.66 15.55L621.95 12.99L621.95 9.09L589.57 9.09L589.57 15.17L638.66 22.91Z"/>
   </g>
  </g>
 </g><rect id="backgroundrect2" transform="matrix(0.72 0 0 0.72 0 0)" fill="none" stroke="#000000" stroke-opacity="0" stroke-width="0" stroke-linecap="square" stroke-linejoin="bevel" width="1072.72497558594" height="122.021240234375"/><g id="group2" transform="matrix(0.72 0 0 0.72 239.186440677966 615.050847457627)" fill="none">
  <g id="svg_12" fill="none">
   <g id="svg_21" fill="none">
    <path id="svg_31" transform="translate(118.824208984375, 31.4425938415527)" fill="#0404b8" stroke="#000000" stroke-width="3" stroke-linecap="butt" stroke-linejoin="miter" stroke-miterlimit="2" d="M27.91 36.86L27.91 36.86L27.91 36.86C28.7167 37.8867 29.12 39.2333 29.12 40.9L29.12 40.9L29.12 40.9C29.12 43.2 28.2667 44.96 26.56 46.18L26.56 46.18L26.56 46.18C24.8533 47.3933 22.6567 48 19.97 48L19.97 48L19.97 48C18.4367 48 16.4967 47.83 14.15 47.49L14.15 47.49L14.15 47.49C9.53667 46.7633 6.52667 46.4 5.12 46.4L5.12 46.4L5.12 46.4C3.71333 46.4 2.73333 46.4333 2.18 46.5L2.18 46.5L2.18 46.5C1.62667 46.56 0.9 46.6333 0 46.72L0 46.72L7.87 4.48L35.46 4.48L35.46 4.48C35.46 7.08 34.83 9.06333 33.57 10.43L33.57 10.43L33.57 10.43C32.31 11.7967 30.4433 12.48 27.97 12.48L27.97 12.48L27.97 12.48C25.4967 12.48 23 11.9033 20.48 10.75L20.48 10.75L18.5 21.95L29.89 21.95L29.89 21.95C29.89 24.21 29.3367 25.97 28.23 27.23L28.23 27.23L28.23 27.23C27.1167 28.49 25.6333 29.12 23.78 29.12L23.78 29.12L23.78 29.12C21.92 29.12 20.4167 28.9067 19.27 28.48L19.27 28.48L19.27 28.48C18.1167 28.0533 17.4767 27.7767 17.35 27.65L17.35 27.65L15.04 39.74L15.04 39.74C16.0667 39.8733 17.54 39.94 19.46 39.94L19.46 39.94L19.46 39.94C22.7467 39.94 25.5633 38.9133 27.91 36.86ZM62.08 48L62.08 48L62.08 48C56.92 48 54.34 45.9933 54.34 41.98L54.34 41.98L54.34 41.98C54.38 40.8733 54.57 39.38 54.91 37.5L54.91 37.5L56.07 31.62L56.07 31.62C57.2167 26.0733 57.79 22.68 57.79 21.44L57.79 21.44L57.79 21.44C57.79 18.9667 57.0667 17.73 55.62 17.73L55.62 17.73L55.62 17.73C53.1867 17.73 51.33 20.9067 50.05 27.26L50.05 27.26L46.27 46.72L33.41 48L40.07 14.02L50.56 12.8L49.54 19.07L49.54 19.07C51.5467 14.89 55.62 12.8 61.76 12.8L61.76 12.8L61.76 12.8C64.7467 12.8 66.87 13.43 68.13 14.69L68.13 14.69L68.13 14.69C69.39 15.95 70.02 17.9867 70.02 20.8L70.02 20.8L70.02 20.8C70.02 23.4467 69.3367 27.8633 67.97 34.05L67.97 34.05L67.97 34.05C67.33 36.8233 67.01 38.7333 67.01 39.78L67.01 39.78L67.01 39.78C67.01 40.82 67.2967 41.64 67.87 42.24L67.87 42.24L67.87 42.24C68.45 42.84 69.1667 43.18 70.02 43.26L70.02 43.26L70.02 43.26C69.5933 44.7133 68.6433 45.8667 67.17 46.72L67.17 46.72L67.17 46.72C65.6967 47.5733 64 48 62.08 48ZM95.17 28.74L95.17 28.74L95.17 28.74C96.7033 26.0067 97.47 23.2533 97.47 20.48L97.47 20.48L97.47 20.48C97.47 18.6467 96.81 17.73 95.49 17.73L95.49 17.73L95.49 17.73C94.4633 17.73 93.4167 18.6033 92.35 20.35L92.35 20.35L92.35 20.35C91.2433 22.1033 90.52 24.11 90.18 26.37L90.18 26.37L86.85 46.72L73.6 48L80.13 14.08L90.69 12.8L89.54 19.26L89.54 19.26C91.6267 14.9533 95.0167 12.8 99.71 12.8L99.71 12.8L99.71 12.8C102.19 12.8 104.1 13.44 105.44 14.72L105.44 14.72L105.44 14.72C106.787 16 107.46 17.9533 107.46 20.58L107.46 20.58L107.46 20.58C107.46 23.2 106.597 25.3433 104.87 27.01L104.87 27.01L104.87 27.01C103.137 28.67 100.8 29.5 97.86 29.5L97.86 29.5L97.86 29.5C96.58 29.5 95.6833 29.2467 95.17 28.74ZM123.84 43.2L123.84 43.2L123.84 43.2C122.52 46.4 119.747 48 115.52 48L115.52 48L115.52 48C113.347 48 111.577 47.2533 110.21 45.76L110.21 45.76L110.21 45.76C109.057 44.44 108.48 43.1167 108.48 41.79L108.48 41.79L108.48 41.79C108.48 38.3367 109.27 33.24 110.85 26.5L110.85 26.5L113.22 14.08L126.21 12.8L122.31 33.02L122.31 33.02C121.583 36.18 121.22 38.3133 121.22 39.42L121.22 39.42L121.22 39.42C121.22 41.8533 122.093 43.1133 123.84 43.2ZM114.37 5.18L114.37 5.18L114.37 5.18C114.37 3.52 115.063 2.24 116.45 1.34L116.45 1.34L116.45 1.34C117.837 0.446667 119.533 0 121.54 0L121.54 0L121.54 0C123.547 0 125.157 0.446667 126.37 1.34L126.37 1.34L126.37 1.34C127.583 2.24 128.19 3.52 128.19 5.18L128.19 5.18L128.19 5.18C128.19 6.84667 127.52 8.10667 126.18 8.96L126.18 8.96L126.18 8.96C124.833 9.81333 123.157 10.24 121.15 10.24L121.15 10.24L121.15 10.24C119.15 10.24 117.52 9.81333 116.26 8.96L116.26 8.96L116.26 8.96C115 8.10667 114.37 6.84667 114.37 5.18ZM144.77 59.52L147.46 46.53L147.46 46.53C146.053 47.51 144.23 48 141.99 48L141.99 48L141.99 48C139.75 48 137.807 47.7433 136.16 47.23L136.16 47.23L136.16 47.23C134.52 46.7167 133.187 45.9067 132.16 44.8L132.16 44.8L132.16 44.8C130.2 42.6667 129.22 39.1033 129.22 34.11L129.22 34.11L129.22 34.11C129.22 27.7967 131.097 22.6567 134.85 18.69L134.85 18.69L134.85 18.69C138.517 14.7633 143.38 12.8 149.44 12.8L149.44 12.8L149.44 12.8C151.62 12.8 153.497 13.1633 155.07 13.89L155.07 13.89L166.4 12.8L157.7 58.24ZM143.68 44.03L143.68 44.03L143.68 44.03C145.007 44.03 146.16 43.36 147.14 42.02L147.14 42.02L147.14 42.02C148.12 40.6733 148.823 38.8467 149.25 36.54L149.25 36.54L152.64 17.79L152.64 17.79C151.747 17.0233 150.777 16.64 149.73 16.64L149.73 16.64L149.73 16.64C148.683 16.64 147.85 16.81 147.23 17.15L147.23 17.15L147.23 17.15C146.617 17.49 146.073 18.0467 145.6 18.82L145.6 18.82L145.6 18.82C144.367 20.82 143.257 24.7233 142.27 30.53L142.27 30.53L142.27 30.53C141.717 33.9833 141.44 37.0967 141.44 39.87L141.44 39.87L141.44 39.87C141.44 42.6433 142.187 44.03 143.68 44.03ZM189.31 44.03L189.31 44.03L189.31 44.03C187.263 46.6767 183.703 48 178.63 48L178.63 48L178.63 48C175.983 48 173.7 47.2 171.78 45.6L171.78 45.6L171.78 45.6C169.86 44 168.9 42.0467 168.9 39.74L168.9 39.74L168.9 39.74C168.9 38.46 168.963 37.5 169.09 36.86L169.09 36.86L173.38 14.08L186.37 12.8L181.7 37.5L181.7 37.5C181.527 38.44 181.44 39.1867 181.44 39.74L181.44 39.74L181.44 39.74C181.44 42.22 182.187 43.46 183.68 43.46L183.68 43.46L183.68 43.46C185.347 43.46 186.777 42.3267 187.97 40.06L187.97 40.06L187.97 40.06C188.357 39.34 188.633 38.51 188.8 37.57L188.8 37.57L193.35 14.08L205.95 12.8L201.22 37.76L201.22 37.76C201.093 38.4 201.03 39.06 201.03 39.74L201.03 39.74L201.03 39.74C201.03 40.4267 201.22 41.1433 201.6 41.89L201.6 41.89L201.6 41.89C201.987 42.6367 202.797 43.0933 204.03 43.26L204.03 43.26L204.03 43.26C203.777 44.2867 203.203 45.14 202.31 45.82L202.31 45.82L202.31 45.82C200.43 47.2733 198.477 48 196.45 48L196.45 48L196.45 48C194.423 48 192.813 47.6367 191.62 46.91L191.62 46.91L191.62 46.91C190.427 46.1833 189.657 45.2233 189.31 44.03ZM235.07 35.9L235.07 35.9L235.07 35.9C236.137 36.6267 236.67 37.79 236.67 39.39L236.67 39.39L236.67 39.39C236.67 40.99 236.267 42.3033 235.46 43.33L235.46 43.33L235.46 43.33C234.647 44.35 233.58 45.2033 232.26 45.89L232.26 45.89L232.26 45.89C229.527 47.2967 226.69 48 223.75 48L223.75 48L223.75 48C220.803 48 218.467 47.68 216.74 47.04L216.74 47.04L216.74 47.04C215.013 46.4 213.573 45.4833 212.42 44.29L212.42 44.29L212.42 44.29C210.16 42.03 209.03 38.83 209.03 34.69L209.03 34.69L209.03 34.69C209.03 28.2433 210.777 23.06 214.27 19.14L214.27 19.14L214.27 19.14C218.03 14.9133 223.173 12.8 229.7 12.8L229.7 12.8L229.7 12.8C233.753 12.8 236.783 13.6533 238.79 15.36L238.79 15.36L238.79 15.36C240.283 16.64 241.03 18.3267 241.03 20.42L241.03 20.42L241.03 20.42C241.03 27.9267 234.543 31.68 221.57 31.68L221.57 31.68L221.57 31.68C221.397 32.7867 221.31 33.81 221.31 34.75L221.31 34.75L221.31 34.75C221.31 36.7167 221.75 38.0733 222.63 38.82L222.63 38.82L222.63 38.82C223.503 39.5667 224.75 39.94 226.37 39.94L226.37 39.94L226.37 39.94C227.99 39.94 229.663 39.5667 231.39 38.82L231.39 38.82L231.39 38.82C233.123 38.0733 234.35 37.1 235.07 35.9ZM222.02 28.93L222.02 28.93L222.02 28.93C225.047 28.93 227.437 27.99 229.19 26.11L229.19 26.11L229.19 26.11C230.937 24.3167 231.81 21.9933 231.81 19.14L231.81 19.14L231.81 19.14C231.81 18.1533 231.63 17.3933 231.27 16.86L231.27 16.86L231.27 16.86C230.903 16.3267 230.357 16.06 229.63 16.06L229.63 16.06L229.63 16.06C228.91 16.06 228.24 16.2 227.62 16.48L227.62 16.48L227.62 16.48C227 16.76 226.37 17.3667 225.73 18.3L225.73 18.3L225.73 18.3C224.15 20.4333 222.913 23.9767 222.02 28.93ZM274.63 20.1L274.63 20.1L274.63 20.1C274.63 21.8867 273.883 23.3367 272.39 24.45L272.39 24.45L272.39 24.45C270.897 25.5567 268.933 26.11 266.5 26.11L266.5 26.11L266.5 26.11C265.473 26.11 264.663 25.96 264.07 25.66L264.07 25.66L264.07 25.66C264.537 24.5533 264.843 23.3067 264.99 21.92L264.99 21.92L264.99 21.92C265.143 20.5333 265.22 19.6467 265.22 19.26L265.22 19.26L265.22 19.26C265.22 17.4733 264.6 16.58 263.36 16.58L263.36 16.58L263.36 16.58C262.507 16.58 261.6 17.1133 260.64 18.18L260.64 18.18L260.64 18.18C259.68 19.2467 258.797 20.61 257.99 22.27L257.99 22.27L257.99 22.27C256.197 26.11 255.3 29.9733 255.3 33.86L255.3 33.86L255.3 33.86C255.3 35.9933 255.703 37.54 256.51 38.5L256.51 38.5L256.51 38.5C257.323 39.46 258.627 39.94 260.42 39.94L260.42 39.94L260.42 39.94C262.893 39.94 265.11 38.9133 267.07 36.86L267.07 36.86L267.07 36.86C267.63 36.22 268.057 35.54 268.35 34.82L268.35 34.82L268.35 34.82C269.977 35.6733 270.79 37.2733 270.79 39.62L270.79 39.62L270.79 39.62C270.79 42.0067 269.467 43.99 266.82 45.57L266.82 45.57L266.82 45.57C264.087 47.19 260.543 48 256.19 48L256.19 48L256.19 48C247.53 48 243.2 43.4133 243.2 34.24L243.2 34.24L243.2 34.24C243.2 27.54 245.1 22.27 248.9 18.43L248.9 18.43L248.9 18.43C252.567 14.6767 257.77 12.8 264.51 12.8L264.51 12.8L264.51 12.8C271.257 12.8 274.63 15.2333 274.63 20.1ZM302.27 35.9L302.27 35.9L302.27 35.9C303.337 36.6267 303.87 37.79 303.87 39.39L303.87 39.39L303.87 39.39C303.87 40.99 303.467 42.3033 302.66 43.33L302.66 43.33L302.66 43.33C301.847 44.35 300.78 45.2033 299.46 45.89L299.46 45.89L299.46 45.89C296.727 47.2967 293.89 48 290.95 48L290.95 48L290.95 48C288.003 48 285.667 47.68 283.94 47.04L283.94 47.04L283.94 47.04C282.213 46.4 280.773 45.4833 279.62 44.29L279.62 44.29L279.62 44.29C277.36 42.03 276.23 38.83 276.23 34.69L276.23 34.69L276.23 34.69C276.23 28.2433 277.977 23.06 281.47 19.14L281.47 19.14L281.47 19.14C285.23 14.9133 290.373 12.8 296.9 12.8L296.9 12.8L296.9 12.8C300.953 12.8 303.983 13.6533 305.99 15.36L305.99 15.36L305.99 15.36C307.483 16.64 308.23 18.3267 308.23 20.42L308.23 20.42L308.23 20.42C308.23 27.9267 301.743 31.68 288.77 31.68L288.77 31.68L288.77 31.68C288.597 32.7867 288.51 33.81 288.51 34.75L288.51 34.75L288.51 34.75C288.51 36.7167 288.95 38.0733 289.83 38.82L289.83 38.82L289.83 38.82C290.703 39.5667 291.95 39.94 293.57 39.94L293.57 39.94L293.57 39.94C295.19 39.94 296.863 39.5667 298.59 38.82L298.59 38.82L298.59 38.82C300.323 38.0733 301.55 37.1 302.27 35.9ZM289.22 28.93L289.22 28.93L289.22 28.93C292.247 28.93 294.637 27.99 296.39 26.11L296.39 26.11L296.39 26.11C298.137 24.3167 299.01 21.9933 299.01 19.14L299.01 19.14L299.01 19.14C299.01 18.1533 298.83 17.3933 298.47 16.86L298.47 16.86L298.47 16.86C298.103 16.3267 297.557 16.06 296.83 16.06L296.83 16.06L296.83 16.06C296.11 16.06 295.44 16.2 294.82 16.48L294.82 16.48L294.82 16.48C294.2 16.76 293.57 17.3667 292.93 18.3L292.93 18.3L292.93 18.3C291.35 20.4333 290.113 23.9767 289.22 28.93ZM330.43 28.74L330.43 28.74L330.43 28.74C331.97 26.0067 332.74 23.2533 332.74 20.48L332.74 20.48L332.74 20.48C332.74 18.6467 332.077 17.73 330.75 17.73L330.75 17.73L330.75 17.73C329.73 17.73 328.687 18.6033 327.62 20.35L327.62 20.35L327.62 20.35C326.507 22.1033 325.78 24.11 325.44 26.37L325.44 26.37L322.11 46.72L308.87 48L315.39 14.08L325.95 12.8L324.8 19.26L324.8 19.26C326.893 14.9533 330.287 12.8 334.98 12.8L334.98 12.8L334.98 12.8C337.453 12.8 339.363 13.44 340.71 14.72L340.71 14.72L340.71 14.72C342.05 16 342.72 17.9533 342.72 20.58L342.72 20.58L342.72 20.58C342.72 23.2 341.857 25.3433 340.13 27.01L340.13 27.01L340.13 27.01C338.403 28.67 336.067 29.5 333.12 29.5L333.12 29.5L333.12 29.5C331.84 29.5 330.943 29.2467 330.43 28.74ZM362.88 24.26L362.88 24.26L362.88 24.26C363.48 22.68 363.78 21.2067 363.78 19.84L363.78 19.84L363.78 19.84C363.78 17.32 362.757 16.06 360.71 16.06L360.71 16.06L360.71 16.06C359.643 16.06 358.67 16.54 357.79 17.5L357.79 17.5L357.79 17.5C356.917 18.46 356.48 19.54 356.48 20.74L356.48 20.74L356.48 20.74C356.48 21.5933 356.823 22.36 357.51 23.04L357.51 23.04L357.51 23.04C358.49 23.98 360.237 25.2167 362.75 26.75L362.75 26.75L362.75 26.75C365.27 28.29 367.01 29.6867 367.97 30.94L367.97 30.94L367.97 30.94C368.93 32.2 369.41 33.6933 369.41 35.42L369.41 35.42L369.41 35.42C369.41 37.1533 368.993 38.8067 368.16 40.38L368.16 40.38L368.16 40.38C367.327 41.96 366.163 43.3067 364.67 44.42L364.67 44.42L364.67 44.42C361.47 46.8067 357.31 48 352.19 48L352.19 48L352.19 48C349.417 48 346.963 47.2733 344.83 45.82L344.83 45.82L344.83 45.82C342.697 44.4133 341.63 42.88 341.63 41.22L341.63 41.22L341.63 41.22C341.63 39.5533 342.24 38.23 343.46 37.25L343.46 37.25L343.46 37.25C344.673 36.27 346.177 35.78 347.97 35.78L347.97 35.78L347.97 35.78C349.763 35.78 351.213 36.12 352.32 36.8L352.32 36.8L352.32 36.8C351.767 38.2067 351.49 39.38 351.49 40.32L351.49 40.32L351.49 40.32C351.49 43.1333 352.683 44.54 355.07 44.54L355.07 44.54L355.07 44.54C356.097 44.54 356.95 44.22 357.63 43.58L357.63 43.58L357.63 43.58C358.317 42.94 358.66 42.0667 358.66 40.96L358.66 40.96L358.66 40.96C358.66 38.7867 356.823 36.5467 353.15 34.24L353.15 34.24L353.15 34.24C350.163 32.28 348.33 30.9133 347.65 30.14L347.65 30.14L347.65 30.14C346.497 28.78 345.92 27.2467 345.92 25.54L345.92 25.54L345.92 25.54C345.92 23.8333 346.327 22.1667 347.14 20.54L347.14 20.54L347.14 20.54C347.947 18.92 349.097 17.5333 350.59 16.38L350.59 16.38L350.59 16.38C353.71 13.9933 357.977 12.8 363.39 12.8L363.39 12.8L363.39 12.8C366.163 12.8 368.373 13.3533 370.02 14.46L370.02 14.46L370.02 14.46C371.66 15.5733 372.48 17.0667 372.48 18.94L372.48 18.94L372.48 18.94C372.48 20.82 371.917 22.2933 370.79 23.36L370.79 23.36L370.79 23.36C369.657 24.4267 368.067 24.96 366.02 24.96L366.02 24.96L366.02 24.96C364.613 24.96 363.567 24.7267 362.88 24.26ZM400.77 35.9L400.77 35.9L400.77 35.9C401.837 36.6267 402.37 37.79 402.37 39.39L402.37 39.39L402.37 39.39C402.37 40.99 401.963 42.3033 401.15 43.33L401.15 43.33L401.15 43.33C400.343 44.35 399.277 45.2033 397.95 45.89L397.95 45.89L397.95 45.89C395.223 47.2967 392.387 48 389.44 48L389.44 48L389.44 48C386.5 48 384.163 47.68 382.43 47.04L382.43 47.04L382.43 47.04C380.703 46.4 379.263 45.4833 378.11 44.29L378.11 44.29L378.11 44.29C375.85 42.03 374.72 38.83 374.72 34.69L374.72 34.69L374.72 34.69C374.72 28.2433 376.47 23.06 379.97 19.14L379.97 19.14L379.97 19.14C383.723 14.9133 388.863 12.8 395.39 12.8L395.39 12.8L395.39 12.8C399.443 12.8 402.473 13.6533 404.48 15.36L404.48 15.36L404.48 15.36C405.973 16.64 406.72 18.3267 406.72 20.42L406.72 20.42L406.72 20.42C406.72 27.9267 400.237 31.68 387.27 31.68L387.27 31.68L387.27 31.68C387.097 32.7867 387.01 33.81 387.01 34.75L387.01 34.75L387.01 34.75C387.01 36.7167 387.447 38.0733 388.32 38.82L388.32 38.82L388.32 38.82C389.193 39.5667 390.443 39.94 392.07 39.94L392.07 39.94L392.07 39.94C393.69 39.94 395.363 39.5667 397.09 38.82L397.09 38.82L397.09 38.82C398.817 38.0733 400.043 37.1 400.77 35.9ZM387.71 28.93L387.71 28.93L387.71 28.93C390.743 28.93 393.133 27.99 394.88 26.11L394.88 26.11L394.88 26.11C396.633 24.3167 397.51 21.9933 397.51 19.14L397.51 19.14L397.51 19.14C397.51 18.1533 397.327 17.3933 396.96 16.86L396.96 16.86L396.96 16.86C396.6 16.3267 396.057 16.06 395.33 16.06L395.33 16.06L395.33 16.06C394.603 16.06 393.93 16.2 393.31 16.48L393.31 16.48L393.31 16.48C392.697 16.76 392.07 17.3667 391.43 18.3L391.43 18.3L391.43 18.3C389.85 20.4333 388.61 23.9767 387.71 28.93ZM448 35.9L448 35.9L448 35.9C449.067 36.6267 449.6 37.79 449.6 39.39L449.6 39.39L449.6 39.39C449.6 40.99 449.197 42.3033 448.39 43.33L448.39 43.33L448.39 43.33C447.577 44.35 446.51 45.2033 445.19 45.89L445.19 45.89L445.19 45.89C442.457 47.2967 439.617 48 436.67 48L436.67 48L436.67 48C433.73 48 431.397 47.68 429.67 47.04L429.67 47.04L429.67 47.04C427.937 46.4 426.497 45.4833 425.35 44.29L425.35 44.29L425.35 44.29C423.083 42.03 421.95 38.83 421.95 34.69L421.95 34.69L421.95 34.69C421.95 28.2433 423.7 23.06 427.2 19.14L427.2 19.14L427.2 19.14C430.953 14.9133 436.097 12.8 442.63 12.8L442.63 12.8L442.63 12.8C446.683 12.8 449.71 13.6533 451.71 15.36L451.71 15.36L451.71 15.36C453.203 16.64 453.95 18.3267 453.95 20.42L453.95 20.42L453.95 20.42C453.95 27.9267 447.467 31.68 434.5 31.68L434.5 31.68L434.5 31.68C434.327 32.7867 434.24 33.81 434.24 34.75L434.24 34.75L434.24 34.75C434.24 36.7167 434.677 38.0733 435.55 38.82L435.55 38.82L435.55 38.82C436.43 39.5667 437.68 39.94 439.3 39.94L439.3 39.94L439.3 39.94C440.92 39.94 442.593 39.5667 444.32 38.82L444.32 38.82L444.32 38.82C446.047 38.0733 447.273 37.1 448 35.9ZM434.95 28.93L434.95 28.93L434.95 28.93C437.977 28.93 440.363 27.99 442.11 26.11L442.11 26.11L442.11 26.11C443.863 24.3167 444.74 21.9933 444.74 19.14L444.74 19.14L444.74 19.14C444.74 18.1533 444.557 17.3933 444.19 16.86L444.19 16.86L444.19 16.86C443.83 16.3267 443.287 16.06 442.56 16.06L442.56 16.06L442.56 16.06C441.833 16.06 441.163 16.2 440.55 16.48L440.55 16.48L440.55 16.48C439.93 16.76 439.3 17.3667 438.66 18.3L438.66 18.3L438.66 18.3C437.08 20.4333 435.843 23.9767 434.95 28.93ZM475.27 24.26L475.27 24.26L475.27 24.26C475.863 22.68 476.16 21.2067 476.16 19.84L476.16 19.84L476.16 19.84C476.16 17.32 475.137 16.06 473.09 16.06L473.09 16.06L473.09 16.06C472.023 16.06 471.053 16.54 470.18 17.5L470.18 17.5L470.18 17.5C469.307 18.46 468.87 19.54 468.87 20.74L468.87 20.74L468.87 20.74C468.87 21.5933 469.21 22.36 469.89 23.04L469.89 23.04L469.89 23.04C470.87 23.98 472.62 25.2167 475.14 26.75L475.14 26.75L475.14 26.75C477.653 28.29 479.39 29.6867 480.35 30.94L480.35 30.94L480.35 30.94C481.31 32.2 481.79 33.6933 481.79 35.42L481.79 35.42L481.79 35.42C481.79 37.1533 481.377 38.8067 480.55 40.38L480.55 40.38L480.55 40.38C479.717 41.96 478.553 43.3067 477.06 44.42L477.06 44.42L477.06 44.42C473.86 46.8067 469.7 48 464.58 48L464.58 48L464.58 48C461.807 48 459.353 47.2733 457.22 45.82L457.22 45.82L457.22 45.82C455.087 44.4133 454.02 42.88 454.02 41.22L454.02 41.22L454.02 41.22C454.02 39.5533 454.627 38.23 455.84 37.25L455.84 37.25L455.84 37.25C457.06 36.27 458.563 35.78 460.35 35.78L460.35 35.78L460.35 35.78C462.143 35.78 463.597 36.12 464.71 36.8L464.71 36.8L464.71 36.8C464.15 38.2067 463.87 39.38 463.87 40.32L463.87 40.32L463.87 40.32C463.87 43.1333 465.067 44.54 467.46 44.54L467.46 44.54L467.46 44.54C468.48 44.54 469.333 44.22 470.02 43.58L470.02 43.58L470.02 43.58C470.7 42.94 471.04 42.0667 471.04 40.96L471.04 40.96L471.04 40.96C471.04 38.7867 469.207 36.5467 465.54 34.24L465.54 34.24L465.54 34.24C462.553 32.28 460.717 30.9133 460.03 30.14L460.03 30.14L460.03 30.14C458.883 28.78 458.31 27.2467 458.31 25.54L458.31 25.54L458.31 25.54C458.31 23.8333 458.713 22.1667 459.52 20.54L459.52 20.54L459.52 20.54C460.333 18.92 461.487 17.5333 462.98 16.38L462.98 16.38L462.98 16.38C466.093 13.9933 470.36 12.8 475.78 12.8L475.78 12.8L475.78 12.8C478.553 12.8 480.76 13.3533 482.4 14.46L482.4 14.46L482.4 14.46C484.047 15.5733 484.87 17.0667 484.87 18.94L484.87 18.94L484.87 18.94C484.87 20.82 484.303 22.2933 483.17 23.36L483.17 23.36L483.17 23.36C482.037 24.4267 480.447 24.96 478.4 24.96L478.4 24.96L478.4 24.96C476.993 24.96 475.95 24.7267 475.27 24.26ZM504.96 19.97L504.96 19.97L504.96 19.97C506.413 17.9233 508.237 16.2167 510.43 14.85L510.43 14.85L510.43 14.85C512.63 13.4833 515.073 12.8 517.76 12.8L517.76 12.8L517.76 12.8C520.447 12.8 522.43 13.2267 523.71 14.08L523.71 14.08L536.26 12.8L531.91 37.38L531.91 37.38C530.417 45.74 528.09 51.5633 524.93 54.85L524.93 54.85L524.93 54.85C521.903 57.9633 517.443 59.52 511.55 59.52L511.55 59.52L511.55 59.52C507.07 59.52 503.55 58.8167 500.99 57.41L500.99 57.41L500.99 57.41C498.43 56.0033 497.15 54.1267 497.15 51.78L497.15 51.78L497.15 51.78C497.15 50.0267 497.813 48.65 499.14 47.65L499.14 47.65L499.14 47.65C500.46 46.6433 502.143 46.14 504.19 46.14L504.19 46.14L504.19 46.14C505.983 46.14 507.563 46.5467 508.93 47.36L508.93 47.36L508.93 47.36C509.743 47.7867 510.34 48.3 510.72 48.9L510.72 48.9L510.72 48.9C509.74 49.7533 509.25 50.8833 509.25 52.29L509.25 52.29L509.25 52.29C509.25 54.1233 510.103 55.04 511.81 55.04L511.81 55.04L511.81 55.04C514.67 55.04 516.91 51.67 518.53 44.93L518.53 44.93L518.53 44.93C518.997 43.0967 519.423 41.26 519.81 39.42L519.81 39.42L519.81 39.42C517.89 41.7667 514.753 42.94 510.4 42.94L510.4 42.94L510.4 42.94C507.373 42.94 504.983 42.2167 503.23 40.77L503.23 40.77L503.23 40.77C501.483 39.3167 500.61 36.8833 500.61 33.47L500.61 33.47L500.61 33.47C500.61 31.3367 500.973 29.0667 501.7 26.66L501.7 26.66L501.7 26.66C502.427 24.2467 503.513 22.0167 504.96 19.97ZM513.28 33.66L513.28 33.66L513.28 33.66C513.28 36.5667 514.027 38.02 515.52 38.02L515.52 38.02L515.52 38.02C516.547 38.02 517.55 37.4633 518.53 36.35L518.53 36.35L518.53 36.35C519.297 35.4567 519.83 34.3467 520.13 33.02L520.13 33.02L523.39 16.58L523.39 16.58C523.177 16.5333 522.963 16.4667 522.75 16.38L522.75 16.38L522.75 16.38C522.323 16.2133 521.833 16.13 521.28 16.13L521.28 16.13L521.28 16.13C518.68 16.13 516.61 18.2633 515.07 22.53L515.07 22.53L515.07 22.53C513.877 25.8567 513.28 29.5667 513.28 33.66ZM554.05 43.2L554.05 43.2L554.05 43.2C552.73 46.4 549.957 48 545.73 48L545.73 48L545.73 48C543.597 48 541.847 47.2533 540.48 45.76L540.48 45.76L540.48 45.76C539.373 44.52 538.82 43.1967 538.82 41.79L538.82 41.79L538.82 41.79C538.82 38.59 539.567 33.4933 541.06 26.5L541.06 26.5L545.73 1.92L558.72 0.64L552.51 33.02L552.51 33.02C551.79 36.18 551.43 38.3133 551.43 39.42L551.43 39.42L551.43 39.42C551.43 41.8533 552.303 43.1133 554.05 43.2ZM573.44 48L573.44 48L573.44 48C564.053 48 559.36 43.5833 559.36 34.75L559.36 34.75L559.36 34.75C559.36 28.4767 561.09 23.3133 564.55 19.26L564.55 19.26L564.55 19.26C568.217 14.9533 573.23 12.8 579.59 12.8L579.59 12.8L579.59 12.8C584.197 12.8 587.673 13.8667 590.02 16L590.02 16L590.02 16C592.367 18.1333 593.54 21.44 593.54 25.92L593.54 25.92L593.54 25.92C593.54 32.7467 591.703 38.1433 588.03 42.11L588.03 42.11L588.03 42.11C584.45 46.0367 579.587 48 573.44 48ZM575.11 20.16L575.11 20.16L575.11 20.16C574.597 21.3133 574.137 22.7533 573.73 24.48L573.73 24.48L573.73 24.48C573.323 26.2067 572.863 28.4367 572.35 31.17L572.35 31.17L572.35 31.17C571.843 33.8967 571.59 36.9467 571.59 40.32L571.59 40.32L571.59 40.32C571.59 41.4267 571.77 42.3433 572.13 43.07L572.13 43.07L572.13 43.07C572.49 43.7967 573.163 44.16 574.15 44.16L574.15 44.16L574.15 44.16C575.13 44.16 575.93 43.9267 576.55 43.46L576.55 43.46L576.55 43.46C577.163 42.9867 577.707 42.1967 578.18 41.09L578.18 41.09L578.18 41.09C579.033 39.1233 579.8 36.3167 580.48 32.67L580.48 32.67L580.48 32.67C581.167 29.0233 581.54 26.41 581.6 24.83L581.6 24.83L581.6 24.83C581.667 23.25 581.7 21.8733 581.7 20.7L581.7 20.7L581.7 20.7C581.7 19.5267 581.53 18.5567 581.19 17.79L581.19 17.79L581.19 17.79C580.843 17.0233 580.19 16.64 579.23 16.64L579.23 16.64L579.23 16.64C578.27 16.64 577.47 16.94 576.83 17.54L576.83 17.54L576.83 17.54C576.19 18.1333 575.617 19.0067 575.11 20.16ZM617.35 28.74L617.35 28.74L617.35 28.74C618.883 26.0067 619.65 23.2533 619.65 20.48L619.65 20.48L619.65 20.48C619.65 18.6467 618.99 17.73 617.67 17.73L617.67 17.73L617.67 17.73C616.643 17.73 615.597 18.6033 614.53 20.35L614.53 20.35L614.53 20.35C613.423 22.1033 612.697 24.11 612.35 26.37L612.35 26.37L609.03 46.72L595.78 48L602.31 14.08L612.87 12.8L611.71 19.26L611.71 19.26C613.803 14.9533 617.197 12.8 621.89 12.8L621.89 12.8L621.89 12.8C624.363 12.8 626.273 13.44 627.62 14.72L627.62 14.72L627.62 14.72C628.96 16 629.63 17.9533 629.63 20.58L629.63 20.58L629.63 20.58C629.63 23.2 628.767 25.3433 627.04 27.01L627.04 27.01L627.04 27.01C625.313 28.67 622.977 29.5 620.03 29.5L620.03 29.5L620.03 29.5C618.75 29.5 617.857 29.2467 617.35 28.74ZM646.02 43.2L646.02 43.2L646.02 43.2C644.693 46.4 641.92 48 637.7 48L637.7 48L637.7 48C635.52 48 633.75 47.2533 632.39 45.76L632.39 45.76L632.39 45.76C631.237 44.44 630.66 43.1167 630.66 41.79L630.66 41.79L630.66 41.79C630.66 38.3367 631.45 33.24 633.03 26.5L633.03 26.5L635.39 14.08L648.39 12.8L644.48 33.02L644.48 33.02C643.753 36.18 643.39 38.3133 643.39 39.42L643.39 39.42L643.39 39.42C643.39 41.8533 644.267 43.1133 646.02 43.2ZM636.55 5.18L636.55 5.18L636.55 5.18C636.55 3.52 637.243 2.24 638.63 1.34L638.63 1.34L638.63 1.34C640.017 0.446667 641.71 0 643.71 0L643.71 0L643.71 0C645.717 0 647.33 0.446667 648.55 1.34L648.55 1.34L648.55 1.34C649.763 2.24 650.37 3.52 650.37 5.18L650.37 5.18L650.37 5.18C650.37 6.84667 649.697 8.10667 648.35 8.96L648.35 8.96L648.35 8.96C647.01 9.81333 645.337 10.24 643.33 10.24L643.33 10.24L643.33 10.24C641.323 10.24 639.69 9.81333 638.43 8.96L638.43 8.96L638.43 8.96C637.177 8.10667 636.55 6.84667 636.55 5.18ZM665.41 48L665.41 48L665.41 48C656.023 48 651.33 43.5833 651.33 34.75L651.33 34.75L651.33 34.75C651.33 28.4767 653.057 23.3133 656.51 19.26L656.51 19.26L656.51 19.26C660.183 14.9533 665.197 12.8 671.55 12.8L671.55 12.8L671.55 12.8C676.163 12.8 679.643 13.8667 681.99 16L681.99 16L681.99 16C684.337 18.1333 685.51 21.44 685.51 25.92L685.51 25.92L685.51 25.92C685.51 32.7467 683.673 38.1433 680 42.11L680 42.11L680 42.11C676.42 46.0367 671.557 48 665.41 48ZM667.07 20.16L667.07 20.16L667.07 20.16C666.563 21.3133 666.107 22.7533 665.7 24.48L665.7 24.48L665.7 24.48C665.293 26.2067 664.833 28.4367 664.32 31.17L664.32 31.17L664.32 31.17C663.807 33.8967 663.55 36.9467 663.55 40.32L663.55 40.32L663.55 40.32C663.55 41.4267 663.733 42.3433 664.1 43.07L664.1 43.07L664.1 43.07C664.46 43.7967 665.13 44.16 666.11 44.16L666.11 44.16L666.11 44.16C667.097 44.16 667.897 43.9267 668.51 43.46L668.51 43.46L668.51 43.46C669.13 42.9867 669.677 42.1967 670.15 41.09L670.15 41.09L670.15 41.09C671.003 39.1233 671.77 36.3167 672.45 32.67L672.45 32.67L672.45 32.67C673.13 29.0233 673.503 26.41 673.57 24.83L673.57 24.83L673.57 24.83C673.637 23.25 673.67 21.8733 673.67 20.7L673.67 20.7L673.67 20.7C673.67 19.5267 673.497 18.5567 673.15 17.79L673.15 17.79L673.15 17.79C672.81 17.0233 672.16 16.64 671.2 16.64L671.2 16.64L671.2 16.64C670.24 16.64 669.44 16.94 668.8 17.54L668.8 17.54L668.8 17.54C668.16 18.1333 667.583 19.0067 667.07 20.16ZM708.42 24.26L708.42 24.26L708.42 24.26C709.013 22.68 709.31 21.2067 709.31 19.84L709.31 19.84L709.31 19.84C709.31 17.32 708.287 16.06 706.24 16.06L706.24 16.06L706.24 16.06C705.173 16.06 704.203 16.54 703.33 17.5L703.33 17.5L703.33 17.5C702.457 18.46 702.02 19.54 702.02 20.74L702.02 20.74L702.02 20.74C702.02 21.5933 702.36 22.36 703.04 23.04L703.04 23.04L703.04 23.04C704.02 23.98 705.77 25.2167 708.29 26.75L708.29 26.75L708.29 26.75C710.81 28.29 712.55 29.6867 713.51 30.94L713.51 30.94L713.51 30.94C714.47 32.2 714.95 33.6933 714.95 35.42L714.95 35.42L714.95 35.42C714.95 37.1533 714.533 38.8067 713.7 40.38L713.7 40.38L713.7 40.38C712.867 41.96 711.703 43.3067 710.21 44.42L710.21 44.42L710.21 44.42C707.01 46.8067 702.85 48 697.73 48L697.73 48L697.73 48C694.957 48 692.503 47.2733 690.37 45.82L690.37 45.82L690.37 45.82C688.237 44.4133 687.17 42.88 687.17 41.22L687.17 41.22L687.17 41.22C687.17 39.5533 687.777 38.23 688.99 37.25L688.99 37.25L688.99 37.25C690.21 36.27 691.717 35.78 693.51 35.78L693.51 35.78L693.51 35.78C695.297 35.78 696.747 36.12 697.86 36.8L697.86 36.8L697.86 36.8C697.307 38.2067 697.03 39.38 697.03 40.32L697.03 40.32L697.03 40.32C697.03 43.1333 698.223 44.54 700.61 44.54L700.61 44.54L700.61 44.54C701.637 44.54 702.49 44.22 703.17 43.58L703.17 43.58L703.17 43.58C703.85 42.94 704.19 42.0667 704.19 40.96L704.19 40.96L704.19 40.96C704.19 38.7867 702.357 36.5467 698.69 34.24L698.69 34.24L698.69 34.24C695.703 32.28 693.87 30.9133 693.19 30.14L693.19 30.14L693.19 30.14C692.037 28.78 691.46 27.2467 691.46 25.54L691.46 25.54L691.46 25.54C691.46 23.8333 691.863 22.1667 692.67 20.54L692.67 20.54L692.67 20.54C693.483 18.92 694.637 17.5333 696.13 16.38L696.13 16.38L696.13 16.38C699.243 13.9933 703.51 12.8 708.93 12.8L708.93 12.8L708.93 12.8C711.703 12.8 713.91 13.3533 715.55 14.46L715.55 14.46L715.55 14.46C717.197 15.5733 718.02 17.0667 718.02 18.94L718.02 18.94L718.02 18.94C718.02 20.82 717.453 22.2933 716.32 23.36L716.32 23.36L716.32 23.36C715.193 24.4267 713.603 24.96 711.55 24.96L711.55 24.96L711.55 24.96C710.143 24.96 709.1 24.7267 708.42 24.26ZM734.34 48L734.34 48L734.34 48C724.953 48 720.26 43.5833 720.26 34.75L720.26 34.75L720.26 34.75C720.26 28.4767 721.987 23.3133 725.44 19.26L725.44 19.26L725.44 19.26C729.113 14.9533 734.127 12.8 740.48 12.8L740.48 12.8L740.48 12.8C745.087 12.8 748.563 13.8667 750.91 16L750.91 16L750.91 16C753.257 18.1333 754.43 21.44 754.43 25.92L754.43 25.92L754.43 25.92C754.43 32.7467 752.597 38.1433 748.93 42.11L748.93 42.11L748.93 42.11C745.343 46.0367 740.48 48 734.34 48ZM736 20.16L736 20.16L736 20.16C735.487 21.3133 735.03 22.7533 734.63 24.48L734.63 24.48L734.63 24.48C734.223 26.2067 733.763 28.4367 733.25 31.17L733.25 31.17L733.25 31.17C732.737 33.8967 732.48 36.9467 732.48 40.32L732.48 40.32L732.48 40.32C732.48 41.4267 732.663 42.3433 733.03 43.07L733.03 43.07L733.03 43.07C733.39 43.7967 734.06 44.16 735.04 44.16L735.04 44.16L735.04 44.16C736.02 44.16 736.82 43.9267 737.44 43.46L737.44 43.46L737.44 43.46C738.06 42.9867 738.603 42.1967 739.07 41.09L739.07 41.09L739.07 41.09C739.923 39.1233 740.693 36.3167 741.38 32.67L741.38 32.67L741.38 32.67C742.06 29.0233 742.433 26.41 742.5 24.83L742.5 24.83L742.5 24.83C742.56 23.25 742.59 21.8733 742.59 20.7L742.59 20.7L742.59 20.7C742.59 19.5267 742.42 18.5567 742.08 17.79L742.08 17.79L742.08 17.79C741.74 17.0233 741.09 16.64 740.13 16.64L740.13 16.64L740.13 16.64C739.17 16.64 738.37 16.94 737.73 17.54L737.73 17.54L737.73 17.54C737.09 18.1333 736.513 19.0067 736 20.16ZM756.29 42.94L756.29 42.94L756.29 42.94C756.29 41.32 756.92 40.0633 758.18 39.17L758.18 39.17L758.18 39.17C759.44 38.27 760.963 37.82 762.75 37.82L762.75 37.82L762.75 37.82C764.543 37.82 765.983 38.27 767.07 39.17L767.07 39.17L767.07 39.17C768.163 40.0633 768.71 41.32 768.71 42.94L768.71 42.94L768.71 42.94C768.71 44.5667 768.1 45.8167 766.88 46.69L766.88 46.69L766.88 46.69C765.667 47.5633 764.163 48 762.37 48L762.37 48L762.37 48C760.577 48 759.117 47.5633 757.99 46.69L757.99 46.69L757.99 46.69C756.857 45.8167 756.29 44.5667 756.29 42.94Z"/>
   </g>
  </g>
 </g>
</svg>
